<?xml version="1.0" encoding="utf-8"?>
<!-- Generator: Adobe Illustrator 21.0.1, SVG Export Plug-In . SVG Version: 6.00 Build 0)  -->
<svg version="1.1" xmlns="http://www.w3.org/2000/svg" xmlns:xlink="http://www.w3.org/1999/xlink" x="0px" y="0px"
	 viewBox="0 0 119.1 119.1" style="enable-background:new 0 0 119.1 119.1;" xml:space="preserve">
<style type="text/css">
	.st0{display:none;}
	.st1{display:inline;fill:#EFEFEF;}
	.st2{fill:#DAE000;}
	.st3{display:inline;fill:#D8E698;}
	.st4{display:inline;fill:#D3EDFB;}
	.st5{display:inline;fill:#DAE000;}
	.st6{display:inline;fill:#FFF100;}
	.st7{display:inline;fill:#D18E04;}
	.st8{display:inline;fill:#DBE7ED;}
	.st9{fill:#DCDDDD;}
	.st10{display:inline;}
	.st11{fill:none;stroke:#FFFFFF;}
</style>
<g id="台灣" class="st0">
</g>
<g id="離島">
</g>
<g id="宜蘭_x2C_花東" class="st0">
</g>
<g id="台南_x2C_高雄_x2C_屏東" class="st0">
</g>
<g id="雲林_x2C_嘉義" class="st0">
</g>
<g id="中彰投" class="st0">
</g>
<g id="桃竹苗" class="st0">
</g>
<g id="北縣" class="st0">
</g>
<g id="縣級區塊">
	<path class="st9" d="M73.9,95.2c5.4-1.4,6.8-2.1,7.9-2.6c1.2-0.6,2.1-1.1,3.5-2.7c1.4-1.6,3.3-4.5,4.9-6.6c1.6-2.1,3.1-3.5,4.2-4.9
		c1.2-1.4,2.1-2.8,2.6-4c0.4-1.1,0.5-2-0.1-2.9c0-0.1-0.1-0.1-0.1-0.2c-0.7-0.9-2.1-1.9-3.5-2.6c-1.4-0.7-2.8-1.2-4.9-2.6
		c-2.1-1.4-4.9-3.8-6.8-5.2c-1.9-1.4-2.8-1.9-3.1-2.6c-0.2-0.7,0.2-1.6,0.5-3.1c0.2-1.4,0.2-3.3,0.5-4.7c0.2-1.4,0.7-2.3,0.5-3.3
		c-0.2-0.9-1.2-1.9-2.1-2.6c-0.9-0.7-1.9-1.2-4.2-1.9c-2.3-0.7-6.1-1.6-8.7-2.6c-2.6-0.9-4-1.9-4.9-2.8c-0.9-0.9-1.4-1.9-2.1-2.8
		c-0.7-0.9-1.6-1.9-2.8-3.3c-1.2-1.4-2.6-3.3-4-4.5c-1.4-1.2-2.8-1.6-4.5-2.3c-1.6-0.7-3.5-1.6-5.2-2.1C39.8,22,38.4,22,37,21.7
		c-0.9-0.2-1.7-0.6-3.2-0.8c-0.3,0.5-0.7,0.9-1,1.4c-1.9,2.6-3.8,5.4-5.9,7.8c-1.3,1.4-2.7,2.7-3.8,4c1.5,0.7,2,0.8,2.3,1.1
		c0.4,0.5,0.4,1.4,1.1,1.9c0.7,0.5,2.1,0.5,3.3,0.5c1.2,0,2.1,0,3.1,0.2c0.9,0.2,1.9,0.7,2.6,1.4c0.7,0.7,1.2,1.6,1.4,2.6
		c0.2,0.9,0.2,1.9,0.5,2.6c0.2,0.7,0.7,1.2,0.9,1.6c0.2,0.5,0.2,0.9,0.2,1.4c0,0.5,0,0.9-0.2,1.2c-0.2,0.2-0.7,0.2-0.9,0
		c-0.2-0.2-0.2-0.7-0.5-1.2c-0.2-0.5-0.7-0.9-1.2-1.2c-0.5-0.2-0.9-0.2-1.2-0.5c-0.2-0.2-0.2-0.7-0.7-0.9c-0.5-0.2-1.4-0.2-2.1,0
		c-0.7,0.2-1.2,0.7-1.9,1.2c-0.7,0.5-1.6,0.9-2.3,1.6c-0.7,0.7-1.2,1.6-1.6,2.8c-0.5,1.2-0.9,2.6-1.2,3.6c-0.2,0.9-0.2,1.6-1.2,2.7
		c0,0,0,0,0,0c0.5,0.5,1.4,0.5,2.6,0.7c1.2,0.2,2.6,0.7,3.8,0.9c1.2,0.2,2.1,0.2,2.8,0.7c0.7,0.5,1.2,1.4,2.8,2.8
		c1.6,1.4,4.5,3.3,6.3,4.7c1.9,1.4,2.8,2.3,3.8,3.1c0.9,0.7,1.9,1.2,2.8,1.4c0.9,0.2,1.9,0.2,2.6,0.5c0.7,0.2,1.2,0.7,2.6,1.2
		c1.4,0.5,3.8,0.9,5.6,1.4c1.9,0.5,3.3,0.9,4.2,1.2c0.9,0.2,1.4,0.2,2.1,0.5c0.7,0.2,1.6,0.7,2.8,1.9c1.2,1.2,2.6,3.1,3.5,4.5
		c0.9,1.4,1.4,2.3,2.1,2.8c0.7,0.5,1.6,0.5,1.9,0.7c0.2,0.2-0.2,0.7-0.5,1.4C75,87.8,75,88.7,75,89.9c0,1.2,0,2.6-0.4,3.6
		C74.5,94.2,74.2,94.6,73.9,95.2z"/>
</g>
<g id="市級">
</g>
<g id="縣級間隔線" class="st0">
</g>
<g id="縣級區塊_OFFSET">
</g>
</svg>
