<?xml version="1.0" encoding="utf-8"?>
<!-- Generator: Adobe Illustrator 21.0.1, SVG Export Plug-In . SVG Version: 6.00 Build 0)  -->
<svg version="1.1" xmlns="http://www.w3.org/2000/svg" xmlns:xlink="http://www.w3.org/1999/xlink" x="0px" y="0px"
	 viewBox="0 0 119.1 119.1" style="enable-background:new 0 0 119.1 119.1;" xml:space="preserve">
<style type="text/css">
	.st0{display:none;}
	.st1{display:inline;fill:#EFEFEF;}
	.st2{fill:#DAE000;}
	.st3{display:inline;fill:#D8E698;}
	.st4{display:inline;fill:#D3EDFB;}
	.st5{display:inline;fill:#DAE000;}
	.st6{display:inline;fill:#FFF100;}
	.st7{display:inline;fill:#D18E04;}
	.st8{display:inline;fill:#DBE7ED;}
	.st9{fill:#DCDDDD;}
	.st10{display:inline;}
	.st11{fill:none;stroke:#FFFFFF;}
</style>
<g id="台灣" class="st0">
</g>
<g id="離島">
</g>
<g id="宜蘭_x2C_花東" class="st0">
</g>
<g id="台南_x2C_高雄_x2C_屏東" class="st0">
</g>
<g id="雲林_x2C_嘉義" class="st0">
</g>
<g id="中彰投" class="st0">
</g>
<g id="桃竹苗" class="st0">
</g>
<g id="北縣" class="st0">
</g>
<g id="縣級區塊">
	<path class="st9" d="M25.8,84.3c0.9,1.7,1.8,3,2.4,4c0.7,1.2,1.1,2,1.7,2.3c0.6,0.4,1.3,0.4,2.2,0.4c0.9,0,2,0,3-0.2
		c0.9-0.2,1.7-0.6,2.6-0.6c0.9,0,2,0.4,3.2,0.9c1.1,0.6,2.2,1.3,3.5,1.7c1.3,0.4,2.8,0.4,3.7,0.6c0.9,0.2,1.3,0.6,2,0.9
		c0.7,0.4,1.9,0.7,3.5,1.1c1.7,0.4,3.9,0.7,5.2,0.7c1.3,0,1.7-0.4,2.4-0.9c0.7-0.6,1.9-1.3,2.6-1.9c0.7-0.6,1.1-0.9,1.5-0.9
		s0.7,0.4,1.3,0.7c0.6,0.4,1.3,0.7,2.4,0.7s2.6-0.4,4.2-0.3c1.3,0.1,2.6,0.4,6,1.2c0.1-0.7,0.4-1.3,0.8-2.2c0.6-1.3,1.3-3.2,2.4-5
		c1.1-1.9,2.6-3.7,3.4-5.4c0.7-1.7,0.7-3.2,1.1-4.3c0.4-1.1,1.1-1.9,1.5-3.2c0.4-1.3,0.4-3.2,0.9-4.8c0.6-1.7,1.7-3.2,2.2-4.1
		c0.6-0.9,0.6-1.3,0.4-1.5c-0.2-0.2-0.6-0.2-1.7-1.3c-1.1-1.1-3-3.4-4.1-4.7c-1.1-1.3-1.5-1.7-1.7-2c-0.2-0.4-0.2-0.7-0.4-1.9
		c-0.2-1.1-0.6-3-0.7-4.8c-0.2-1.9-0.2-3.7-0.4-4.8c-0.2-1.1-0.6-1.5-0.4-2.4c0.2-0.9,0.9-2.4,1.5-3.7s0.9-2.4,1.5-3.9
		c0.6-1.5,1.3-3.3,2.6-5.4c1.3-2,3.2-4.3,4.5-5.8c1.3-1.5,2-2.2,2.8-2.6c-2.1-0.4-3.1-0.3-4-0.2c-1.2,0.2-2,0.6-3.4,1.3
		c-1.5,0.7-3.7,1.9-5,2.8c-1.3,0.9-1.7,1.7-2,2.4c-0.4,0.7-0.7,1.5-1.5,2c-0.7,0.6-1.9,0.9-2.6,0.7c-0.7-0.2-1.1-0.9-1.5-0.7
		c-0.4,0.2-0.7,1.3-1.3,2.2c-0.6,0.9-1.3,1.7-4.5,3.7c-3.2,2-8.7,5.4-11.7,7.3c-3,1.9-3.4,2.2-3.4,3.4c0,1.1,0.4,3,0.2,4.1
		c-0.2,1.1-0.9,1.5-2,2c-1.1,0.6-2.6,1.3-4.5,2c-1.9,0.7-4.1,1.5-5.4,2c-0.9,0.4-1.3,0.7-1.8,0.6c-1,1.7-2.2,3.3-3,4.6
		c-1,1.7-1.4,2.8-1.6,4.2c-0.1,1-0.2,2.2-0.6,3.2c0.4,0.7,0.4,1.4,0.1,2.3c-0.4,0.9-1.1,2-2,3.2c-0.9,1.1-2,2.2-3.4,3.9
		c-1.3,1.7-2.8,3.9-3.9,5.2C26.4,83.8,26.1,84.1,25.8,84.3z"/>
</g>
<g id="市級">
</g>
<g id="縣級間隔線" class="st0">
</g>
<g id="縣級區塊_OFFSET">
</g>
</svg>
