<?xml version="1.0" encoding="utf-8"?>
<!-- Generator: Adobe Illustrator 21.0.1, SVG Export Plug-In . SVG Version: 6.00 Build 0)  -->
<svg version="1.1" xmlns="http://www.w3.org/2000/svg" xmlns:xlink="http://www.w3.org/1999/xlink" x="0px" y="0px"
	 viewBox="0 0 119.1 119.1" style="enable-background:new 0 0 119.1 119.1;" xml:space="preserve">
<style type="text/css">
	.st0{display:none;}
	.st1{display:inline;fill:#EFEFEF;}
	.st2{fill:#DAE000;}
	.st3{display:inline;fill:#D8E698;}
	.st4{display:inline;fill:#D3EDFB;}
	.st5{display:inline;fill:#DAE000;}
	.st6{display:inline;fill:#FFF100;}
	.st7{display:inline;fill:#D18E04;}
	.st8{display:inline;fill:#DBE7ED;}
	.st9{fill:#DCDDDD;}
	.st10{display:inline;}
	.st11{fill:none;stroke:#FFFFFF;}
</style>
<g id="台灣" class="st0">
</g>
<g id="離島">
</g>
<g id="宜蘭_x2C_花東" class="st0">
</g>
<g id="台南_x2C_高雄_x2C_屏東" class="st0">
</g>
<g id="雲林_x2C_嘉義" class="st0">
</g>
<g id="中彰投" class="st0">
</g>
<g id="桃竹苗" class="st0">
</g>
<g id="北縣" class="st0">
</g>
<g id="縣級區塊">
</g>
<g id="市級">
	<path class="st9" d="M43.3,27.1c-2.3,5.7-2.4,8.8-3,10.5c-0.7,2.1-2.1,2.1-4.1,2.1c-2.1,0-4.8,0-6.9,0c-2.1,0-3.4,0-4.8,2.1
		c-1.4,2.1-2.8,6.2-3.4,8.9c-0.7,2.8-0.7,4.1,0,4.8c0.7,0.7,2.1,0.7,3.4,2.1c1.4,1.4,2.8,4.1,5.5,7.6c2.8,3.4,6.9,7.6,9.6,11
		c2.8,3.4,4.1,6.2,6.2,7.6c2.1,1.4,4.8,1.4,8.9,2.1c4.1,0.7,9.6,2.1,13.8,2.8c4.1,0.7,6.9,0.7,8.9,0c2.1-0.7,3.4-2.1,4.8-3.4
		c1.4-1.4,2.8-2.8,3.4-4.1c0.7-1.4,0.7-2.8,0.7-4.1c0-1.4,0-2.8-0.7-3.4c-0.7-0.7-2.1-0.7-3.4-1.4c-1.4-0.7-2.8-2.1-4.1-4.1
		c-1.4-2.1-2.8-4.8-3.4-6.9c-0.7-2.1-0.7-3.4,0.7-4.8c1.4-1.4,4.1-2.8,7.6-3.4c3.4-0.7,7.6-0.7,9.6-1.7c1.4-0.7,1.8-1.8,4.4-3.7
		c-3.5-1.2-6.9-2.3-9.9-3.5c-3.4-1.4-6.2-2.8-10.3-3.4c-4.1-0.7-9.6-0.7-14.4-1.4c-4.8-0.7-8.9-2.1-11.7-4.1
		C48,32.9,46.6,30.3,43.3,27.1z"/>
</g>
<g id="縣級間隔線" class="st0">
</g>
<g id="縣級區塊_OFFSET">
</g>
</svg>
