<?xml version="1.0" encoding="utf-8"?>
<!-- Generator: Adobe Illustrator 21.0.1, SVG Export Plug-In . SVG Version: 6.00 Build 0)  -->
<svg version="1.1" xmlns="http://www.w3.org/2000/svg" xmlns:xlink="http://www.w3.org/1999/xlink" x="0px" y="0px"
	 viewBox="0 0 119.1 119.1" style="enable-background:new 0 0 119.1 119.1;" xml:space="preserve">
<style type="text/css">
	.st0{display:none;}
	.st1{display:inline;fill:#EFEFEF;}
	.st2{fill:#DAE000;}
	.st3{display:inline;fill:#D8E698;}
	.st4{display:inline;fill:#D3EDFB;}
	.st5{display:inline;fill:#DAE000;}
	.st6{display:inline;fill:#FFF100;}
	.st7{display:inline;fill:#D18E04;}
	.st8{display:inline;fill:#DBE7ED;}
	.st9{fill:#DCDDDD;}
	.st10{display:inline;}
	.st11{fill:none;stroke:#FFFFFF;}
</style>
<g id="台灣" class="st0">
</g>
<g id="離島">
</g>
<g id="宜蘭_x2C_花東" class="st0">
</g>
<g id="台南_x2C_高雄_x2C_屏東" class="st0">
</g>
<g id="雲林_x2C_嘉義" class="st0">
</g>
<g id="中彰投" class="st0">
</g>
<g id="桃竹苗" class="st0">
</g>
<g id="北縣" class="st0">
</g>
<g id="縣級區塊">
	<path class="st9" d="M14.2,75.1c2.7-0.5,3.6,0,4.5,0.3c1.1,0.4,2.1,0.8,3,1.2c0.9,0.4,1.6,0.7,2.1,0.7c0.5,0,0.9-0.4,1.3-0.9
		c0.4-0.5,0.7-1.3,1.1-1.8c0.4-0.5,0.7-0.9,1.1-1.1c0.4-0.2,0.7-0.2,1.1,0c0.4,0.2,0.7,0.5,1.1,0.7c0.4,0.2,0.7,0.2,0.9,0
		c0.2-0.2,0.2-0.5,0-1.1c-0.2-0.5-0.5-1.3-0.4-1.8c0.2-0.5,0.9-0.9,1.8-1.8c0.9-0.9,2-2.3,3-3.2c1.1-0.9,2.1-1.3,3-1.8
		c0.9-0.5,1.6-1.3,2.3-1.6c0.7-0.4,1.4-0.4,2.1-0.4c0.7,0,1.4,0,2.3,0.2c0.9,0.2,2,0.5,2.5,0.5c0.5,0,0.5-0.4,0.9-0.5
		c0.4-0.2,1.1-0.2,1.8-0.4c0.7-0.2,1.4-0.5,2-0.7c0.5-0.2,0.9-0.2,1.1,0c0.2,0.2,0.2,0.5,0.9,1.3c0.7,0.7,2.1,1.8,3,2.7
		c0.9,0.9,1.3,1.6,1.8,2.1c0.5,0.5,1.3,0.9,1.8,1.3c0.5,0.4,0.9,0.7,1.1,1.1c0.2,0.4,0.2,0.7,0,1.1c-0.2,0.4-0.5,0.7-0.9,1.1
		s-0.7,0.7-0.7,1.1c0,0.4,0.4,0.7,0.9,1.6c0.5,0.9,1.3,2.3,1.8,3.4c0.5,1.1,0.9,1.8,1.3,2.5c0.4,0.7,0.7,1.4,0.9,2
		c0.2,0.5,0.2,0.9,0.5,1.1c0.4,0.2,1.1,0.2,1.4,0c0.4-0.2,0.4-0.5,0.5-0.5c0.2,0,0.5,0.4,0.7,0.4c0.2,0,0.2-0.4,0.2-0.7
		c0-0.4,0-0.7,0.4-1.3c0.4-0.5,1.1-1.3,1.4-1.4c0.4-0.2,0.4,0.2,0.4,0.5c0,0.4,0,0.7,0,1.1s0,0.7,0.8,0.9c0.7,0.2,2,0.2,4.5,0.2
		c0.1-0.2,0.2-0.5,0.2-0.7c0.5-1.4,1.3-2.5,1.8-3.8c0.5-1.3,0.9-2.7,2-3.8s2.9-1.8,4.7-2.7c1.8-0.9,3.6-2,4.7-3
		c1.1-1.1,1.4-2.1,2.1-3.2c0.7-1.1,1.8-2.1,3.2-3.2c1.4-1.1,3.2-2.1,4.7-3c1.4-0.9,2.5-1.6,3.3-2.2c0.7-0.6,1.3-1.1,3-3.7
		c-0.6-0.2-1.2-0.4-2-0.4c-1.1,0-2.5,0.4-3.6,0.2c-1.1-0.2-1.8-0.9-2.7-2c-0.9-1.1-2-2.5-2.9-3.4c-0.9-0.9-1.6-1.3-1.8-1.6
		c-0.2-0.4,0.2-0.7,0.4-1.3c0.2-0.5,0.2-1.3,0-2c-0.2-0.7-0.5-1.4-1.1-2c-0.5-0.5-1.3-0.9-2.3-1.3c-1.1-0.4-2.5-0.7-3.4-1.1
		c-0.9-0.4-1.3-0.7-1.4-1.1c-0.1-0.1-0.1-0.2-0.1-0.3C83.6,38,83,38,82.6,38.1c-0.5,0.2-0.5,0.5-0.5,0.9c0,0.4,0,0.7,0,1.3
		c0,0.5,0,1.3-0.2,1.6c-0.2,0.4-0.5,0.4-1.1,0.2c-0.5-0.2-1.3-0.5-2.7-0.5c-1.4,0-3.6,0.4-5,0.4c-1.4,0-2.1-0.4-2.7-0.4
		c-0.5,0-0.9,0.4-1.4,0.5c-0.5,0.2-1.3,0.2-1.8,0c-0.5-0.2-0.9-0.5-1.4-0.5c-0.5,0-1.3,0.4-1.8,0.5c-0.5,0.2-0.9,0.2-1.4,0.2
		c-0.5,0-1.3,0-1.8,0c-0.5,0-0.9,0-1.3-0.2c-0.4-0.2-0.7-0.5-1.1-0.9s-0.7-0.7-1.3-1.3c-0.5-0.5-1.3-1.3-1.6-1.8
		c-0.4-0.5-0.4-0.9-0.5-1.1c-0.2-0.2-0.5-0.2-1.3-0.2c-0.7,0-1.8,0-2.9,0c-1.1,0-2.1,0-2.9,0s-1.1,0-1.4,0.2
		c-0.4,0.2-0.7,0.5-1.8,1.3c-1.1,0.7-2.9,1.8-4.1,2.9c-1.3,1.1-2,2.1-2.5,2.5c-0.5,0.4-0.9,0-1.3-0.4c-0.4-0.4-0.7-0.7-1.1-0.7
		S35.2,43,34.6,44c-0.5,1.1-1.3,2.9-1.8,3.8c-0.5,0.9-0.9,0.9-1.3,0.9c-0.4,0-0.7,0-1.1-0.2c-0.4-0.2-0.7-0.5-1.1-0.5
		s-0.7,0.4-1.1,0.5c-0.4,0.2-0.7,0.2-1.1,0.4c-0.4,0.2-0.7,0.5-1.1,0.9c-0.4,0.4-0.7,0.7-0.9,1.3c-0.2,0.5-0.2,1.3-0.4,1.6
		c-0.2,0.4-0.5,0.4-0.9,0.7c-0.4,0.4-0.7,1.1-1.1,1.3c-0.4,0.2-0.7-0.2-1.3-0.5c-0.5-0.4-1.3-0.7-1.8-1.1c-0.5-0.4-0.9-0.7-1.3-0.9
		c-0.4-0.2-0.7-0.2-1.2,0.1c-0.4,0.3-0.9,0.7-2.8,0.8c0.2,1.2,0.4,2.2,0.5,3.2c0.2,1.4,0.2,2.9,0.2,4.8c0,2,0,4.5-0.2,6.6
		c-0.2,2.1-0.5,3.9-0.9,6.3C14.4,74.3,14.3,74.7,14.2,75.1z"/>
</g>
<g id="市級">
</g>
<g id="縣級間隔線" class="st0">
</g>
<g id="縣級區塊_OFFSET">
</g>
</svg>
