<?xml version="1.0" encoding="utf-8"?>
<!-- Generator: Adobe Illustrator 21.0.1, SVG Export Plug-In . SVG Version: 6.00 Build 0)  -->
<svg version="1.1" xmlns="http://www.w3.org/2000/svg" xmlns:xlink="http://www.w3.org/1999/xlink" x="0px" y="0px"
	 viewBox="0 0 119.1 119.1" style="enable-background:new 0 0 119.1 119.1;" xml:space="preserve">
<style type="text/css">
	.st0{display:none;}
	.st1{display:inline;fill:#EFEFEF;}
	.st2{fill:#DAE000;}
	.st3{display:inline;fill:#D8E698;}
	.st4{display:inline;fill:#D3EDFB;}
	.st5{display:inline;fill:#DAE000;}
	.st6{display:inline;fill:#FFF100;}
	.st7{display:inline;fill:#D18E04;}
	.st8{display:inline;fill:#DBE7ED;}
	.st9{fill:#242437;}
	.st10{display:inline;}
	.st11{fill:none;stroke:#FFFFFF;}
	.st12{fill:#DCDDDD;}
</style>
<g id="台灣" class="st0">
</g>
<g id="離島">
</g>
<g id="宜蘭_x2C_花東" class="st0">
</g>
<g id="台南_x2C_高雄_x2C_屏東" class="st0">
</g>
<g id="雲林_x2C_嘉義" class="st0">
</g>
<g id="中彰投" class="st0">
</g>
<g id="桃竹苗" class="st0">
</g>
<g id="北縣" class="st0">
</g>
<g id="縣級區塊">
	<path class="st9" d="M95.3,30.3c-0.7-0.8-1.5-0.8-2.3-0.8c-1.1,0-2.5,0-4.1,0c-1.6,0-3.6,0-4.6-0.2c-1-0.2-1-0.5-1.1-1
		c-0.2-0.5-0.5-1.1-1.5-2.3c-1-1.1-2.6-2.8-3.6-3.4c-1-0.7-1.3-0.3-2,0.2c-0.7,0.5-1.6,1.1-2.5,1.6c-0.8,0.5-1.5,0.8-2.1,1
		c-0.7,0.2-1.3,0.2-1.8,0.5c-0.5,0.3-0.8,1-1,1.5c-0.2,0.5-0.2,0.8-0.3,1c-0.2,0.2-0.5,0.2-1.1,0.3c-0.7,0.2-1.6,0.5-2.3,1
		c-0.7,0.5-1,1.1-1.3,1.3c-0.3,0.2-0.7-0.2-1-0.5c-0.3-0.3-0.7-0.7-1-0.7c-0.3,0-0.7,0.3-1.1,1c-0.5,0.7-1.1,1.6-1.6,2
		c-0.5,0.3-0.8,0-1.3-0.2c-0.5-0.2-1.1-0.2-1.8-0.3c-0.7-0.2-1.3-0.5-1.6-0.5s-0.3,0.3-0.7,0.7c-0.3,0.3-1,0.7-1.5,1.3
		c-0.5,0.7-0.8,1.6-1.1,2.1c-0.3,0.5-0.7,0.5-0.8,0.2c-0.2-0.3-0.2-1-0.3-1.3c-0.2-0.3-0.5-0.3-1.1-0.3c-0.7,0-1.6,0-2.3,0
		c-0.7,0-1,0-1.3,0.5c-0.3,0.5-0.7,1.5-1.1,2.1c-0.5,0.7-1.1,1-1.5,1.8C42,39.7,42,41,41.8,41.8c-0.2,0.8-0.5,1.1-0.8,1.5
		c-0.3,0.3-0.7,0.7-0.8,1.1c-0.2,0.5-0.2,1.1-0.3,1.5c-0.2,0.3-0.5,0.3-0.8,0.2c-0.3-0.2-0.7-0.5-1.3-0.5s-1.6,0.3-3,0.3
		c-1.3,0-2.9-0.3-4.3-0.8c-1.3-0.5-2.3-1.1-3.3-1.6c-0.8-0.4-1.6-0.7-2.1-1c-0.4,0.3-0.7,0.5-1.1,0.6c-0.7,0.2-1.7,0.2-2.2,0.4
		c-0.5,0.2-0.5,0.5-0.3,0.8c0.2,0.3,0.5,0.7,0.7,1.1c0.2,0.5,0.2,1.1,0.3,2.1c0.2,1,0.5,2.3,0.8,3.1c0.3,0.8,0.7,1.1,0.8,2
		c0.2,0.8,0.2,2.1,0,3.6c-0.2,1.5-0.5,3.1-0.5,4.1c0,1,0.3,1.3,1,1.6c0.7,0.3,1.6,0.7,2.1,1.1c0.5,0.5,0.5,1.1,0.8,1.6
		c0.3,0.5,1,0.8,1.6,0.8c0.7,0,1.3-0.3,1.8-0.5c0.5-0.2,0.8-0.2,1,0c0.2,0.2,0.2,0.5,0.2,1c0,0.5,0,1.1-0.2,1.6
		c-0.2,0.5-0.5,0.8-0.8,1c-0.3,0.2-0.7,0.2-1.3,0.2c-0.4,0-1,0-2,0.6c0.1,0.1,0.3,0.2,0.4,0.4c0.3,0.3,0.7,0.7,0.7,1
		c0,0.3-0.3,0.7-0.5,1.1c-0.2,0.5-0.2,1.1-0.2,2c0,0.8,0,1.8-0.2,2.5c-0.2,0.7-0.5,1-0.7,1.6c-0.2,0.7-0.2,1.6-0.2,2.6
		c0,1,0,2,0,2.6c0,0.7,0,1,0.2,1s0.5-0.3,1.1-0.3c0.7,0,1.6,0.3,2.6,0.5c1,0.2,2,0.2,3-0.2c1-0.3,2-1,2.8-1.1c0.8-0.2,1.5,0.2,2,0.3
		c0.5,0.2,0.8,0.2,1,0.3c0.2,0.2,0.2,0.5,0.3,0.8c0.2,0.3,0.5,0.7,1.3,1c0.8,0.3,2.1,0.7,3.1,1c1,0.3,1.6,0.7,2.1,1.1
		c0.5,0.5,0.8,1.1,1,1.8c0.2,0.7,0.2,1.3,0,1.8c-0.2,0.5-0.5,0.8-0.3,1.1c0.2,0.3,0.8,0.7,1.6,1.5c0.8,0.8,1.8,2.1,2.6,3.1
		c0.8,1,1.5,1.6,2.5,1.8c1,0.2,2.3-0.2,3.3-0.2c0.7,0,1.3,0.2,1.8,0.3c0.2,0.1,0.4,0.1,0.6,0.2c0.8,0.2,1.8,0.2,3.5,0.2
		c1.4,0,3.4,0,7.5,0c0-0.3,0.3-0.7,1-1.5c0.7-0.8,1.6-2.1,2.3-3.3c0.7-1.1,1-2.1,1.3-2.6c0.3-0.5,0.7-0.5,1.6-0.7
		c1-0.2,2.6-0.5,3.6-0.7c1-0.2,1.3-0.2,1.5-0.7c0.2-0.5,0.2-1.5,0.2-2.3c0-0.8,0-1.5,0.7-2.1c0.7-0.7,2-1.3,2.8-1.6
		c0.8-0.3,1.1-0.3,1.6-2.3c0.5-2,1.1-5.9,1.6-8.2c0.5-2.3,0.8-3,0.8-3.4c0-0.5-0.3-0.8-0.8-1.3c-0.5-0.5-1.1-1.1-1.8-1.6
		c-0.7-0.5-1.3-0.8-1.6-1.1c-0.3-0.3-0.3-0.7,0.2-1.5c0.5-0.8,1.5-2.1,2.1-3.1c0.7-1,1-1.6,1.3-2.3c0.3-0.7,0.7-1.3,1-2.1
		c0.3-0.8,0.7-1.8,1-3.1c0.3-1.3,0.7-3,0.7-4.1c0-1.1-0.3-1.8-0.7-2.3c-0.3-0.5-0.7-0.8-1-1.1c-0.3-0.3-0.7-0.7-0.8-1.1
		c-0.2-0.5-0.2-1.1,0.7-2.6c0.8-1.5,2.5-3.8,3.6-5.2c1.1-1.5,1.8-2.1,2-2.8c0.2-0.7-0.2-1.3-0.3-2c-0.2-0.7-0.2-1.3,0-2
		C95.3,30.4,95.3,30.4,95.3,30.3z"/>
</g>
<g id="市級">
</g>
<g id="縣級間隔線" class="st0">
</g>
<g id="縣級區塊_OFFSET">
</g>
</svg>
