<?xml version="1.0" encoding="utf-8"?>
<!-- Generator: Adobe Illustrator 21.0.1, SVG Export Plug-In . SVG Version: 6.00 Build 0)  -->
<svg version="1.1" xmlns="http://www.w3.org/2000/svg" xmlns:xlink="http://www.w3.org/1999/xlink" x="0px" y="0px"
	 viewBox="0 0 119.1 119.1" style="enable-background:new 0 0 119.1 119.1;" xml:space="preserve">
<style type="text/css">
	.st0{display:none;}
	.st1{display:inline;fill:#EFEFEF;}
	.st2{fill:#DAE000;}
	.st3{display:inline;fill:#D8E698;}
	.st4{display:inline;fill:#D3EDFB;}
	.st5{display:inline;fill:#DAE000;}
	.st6{display:inline;fill:#FFF100;}
	.st7{display:inline;fill:#D18E04;}
	.st8{display:inline;fill:#DBE7ED;}
	.st9{fill:#242437;}
	.st10{display:inline;}
	.st11{fill:none;stroke:#FFFFFF;}
	.st12{fill:#DCDDDD;}
</style>
<g id="台灣" class="st0">
</g>
<g id="離島">
</g>
<g id="宜蘭_x2C_花東" class="st0">
</g>
<g id="台南_x2C_高雄_x2C_屏東" class="st0">
</g>
<g id="雲林_x2C_嘉義" class="st0">
</g>
<g id="中彰投" class="st0">
</g>
<g id="桃竹苗" class="st0">
</g>
<g id="北縣" class="st0">
</g>
<g id="縣級區塊">
</g>
<g id="市級">
	<path class="st9" d="M46,21.9c-2.5,2.9-4.6,5.9-6.1,9.3c-3.9,8.7-3.9,19.7-4.7,28.4c-0.8,8.7-2.4,15-3.2,20.5
		c-0.5,3.5-0.7,6.7-1.2,9.4c2-0.9,3.2-2.3,3.9-3.5c1.2-2,1.2-3.6,2-4.3c0.8-0.8,2.4-0.8,3.2,0c0.8,0.8,0.8,2.4,1.6,3.9
		c0.8,1.6,2.4,3.2,3.2,5.5c0.8,2.3,0.8,5.5,2.3,7.1c3.2-3.7,3.3-5.9,4-9c0.8-3.6,2.4-8.3,3.9-12.2c1.6-3.9,3.2-7.1,5.5-9.5
		c2.4-2.4,5.5-3.9,7.9-5.5c2.4-1.6,3.9-3.2,6.3-3.9c2.4-0.8,5.5-0.8,7.1,0c1.6,0.8,1.6,2.4,2.4,3.2c0.8,0.8,2.4,0.8,3.9,1.6
		c1.6,0.8,3.2,2.4,3.9,3.9c0.8,1.6,0.8,3.2,1.6,3.9c0.8,0.8,2.4,0.8,3.2,0c0.8-0.8,0.8-2.4,0.8-3.9c0-1.6,0-3.2-0.8-4.7
		c-0.8-1.6-2.4-3.2-3.2-5.5c-0.8-2.4-0.8-5.5-1.6-8.7c-0.8-3.2-2.4-6.3-4.7-8.7c-2.4-2.4-5.5-3.9-8.7-4.7c-3.2-0.8-6.3-0.8-10.3-0.8
		c-3.9,0-8.7,0-11-1.6c-2.4-1.6-2.4-4.7-3.6-6.3C52.8,24.4,51.1,24.2,46,21.9z"/>
</g>
<g id="縣級間隔線" class="st0">
</g>
<g id="縣級區塊_OFFSET">
</g>
</svg>
