<?xml version="1.0" encoding="utf-8"?>
<!-- Generator: Adobe Illustrator 21.0.1, SVG Export Plug-In . SVG Version: 6.00 Build 0)  -->
<svg version="1.1" xmlns="http://www.w3.org/2000/svg" xmlns:xlink="http://www.w3.org/1999/xlink" x="0px" y="0px"
	 viewBox="0 0 119.1 119.1" style="enable-background:new 0 0 119.1 119.1;" xml:space="preserve">
<style type="text/css">
	.st0{display:none;}
	.st1{display:inline;fill:#EFEFEF;}
	.st2{fill:#DAE000;}
	.st3{display:inline;fill:#D8E698;}
	.st4{display:inline;fill:#D3EDFB;}
	.st5{display:inline;fill:#DAE000;}
	.st6{display:inline;fill:#FFF100;}
	.st7{display:inline;fill:#D18E04;}
	.st8{display:inline;fill:#DBE7ED;}
	.st9{fill:#242437;}
	.st10{display:inline;}
	.st11{fill:none;stroke:#FFFFFF;}
	.st12{fill:#DCDDDD;}
</style>
<g id="台灣" class="st0">
</g>
<g id="離島">
</g>
<g id="宜蘭_x2C_花東" class="st0">
</g>
<g id="台南_x2C_高雄_x2C_屏東" class="st0">
</g>
<g id="雲林_x2C_嘉義" class="st0">
</g>
<g id="中彰投" class="st0">
</g>
<g id="桃竹苗" class="st0">
</g>
<g id="北縣" class="st0">
</g>
<g id="縣級區塊">
	<path class="st9" d="M66.2,20.7c2.2,0.7,3.2,0.9,4.1,1.1c1.6,0.4,2.6,0.4,3.6,0.9c1,0.5,2,1.5,3.2,2.5c1.2,1,2.7,2,3.5,3
		c0.7,1,0.7,2,0.7,3c0,1,0,2-0.2,3.2c-0.2,1.2-0.7,2.7-1.2,3.7c-0.5,1-1,1.5-1.5,2c-0.5,0.5-1,1-1.7,1.5c-0.7,0.5-1.7,1-2.7,1.2
		c-1,0.2-2,0.2-2.5,0.5c-0.5,0.2-0.5,0.7-0.7,1.7c-0.2,1-0.7,2.5-0.5,3.7c0.2,1.2,1.2,2.2,2.2,3.5c1,1.2,2,2.7,2.5,4.2
		c0.5,1.5,0.5,3,0.7,4c0.2,1,0.7,1.5,2.2,2c1.5,0.5,4,1,5.7,0.7c1.7-0.2,2.7-1.2,3.5-1.5c0.7-0.2,1.2,0.2,1.5,1.7
		c0.2,1.5,0.2,4,0.5,6c0.2,2,0.7,3.5,1.2,5c0.5,1.5,1,3,2,5c1,2,2.5,4.5,3.5,5.5c0.3,0.3,0.6,0.5,0.9,0.5c-1.3,2.3-2.9,4.4-4,6.2
		c-1.4,2.2-1.9,3.7-2.1,5.6c-0.2,1.4-0.2,3-0.9,4.3c0-0.1-0.1-0.1-0.1-0.2c-0.7-1-2.2-2-3.7-2.7c-1.5-0.7-3-1.2-5.2-2.7
		c-2.2-1.5-5.2-4-7.2-5.5c-2-1.5-3-2-3.2-2.7c-0.2-0.7,0.2-1.7,0.5-3.2c0.2-1.5,0.2-3.5,0.5-5c0.2-1.5,0.7-2.5,0.5-3.5
		c-0.2-1-1.2-2-2.2-2.7c-1-0.7-2-1.2-4.5-2c-2.5-0.7-6.4-1.7-9.2-2.7c-2.7-1-4.2-2-5.2-3c-1-1-1.5-2-2.2-3c-0.7-1-1.7-2-3-3.5
		c-1.2-1.5-2.7-3.5-4.2-4.7c-1.5-1.2-3-1.7-4.7-2.5c-1.7-0.7-3.7-1.7-5.5-2.2c-1.7-0.5-3.2-0.5-4.7-0.9c-0.9-0.2-1.8-0.6-3.4-0.8
		c1.6-2.2,3.2-4.1,4.9-5.7c2-2,4-3.5,5.5-4.5c1.5-1,2.5-1.5,5.2-3.2c2.7-1.7,7.2-4.7,9.7-6.7c2.5-2,3-3,5.7-4c2.7-1,7.7-2,11.2-2.7
		C65.3,20.9,65.8,20.8,66.2,20.7z"/>
</g>
<g id="市級">
</g>
<g id="縣級間隔線" class="st0">
</g>
<g id="縣級區塊_OFFSET">
</g>
</svg>
