<?xml version="1.0" encoding="utf-8"?>
<!-- Generator: Adobe Illustrator 21.0.1, SVG Export Plug-In . SVG Version: 6.00 Build 0)  -->
<svg version="1.1" xmlns="http://www.w3.org/2000/svg" xmlns:xlink="http://www.w3.org/1999/xlink" x="0px" y="0px"
	 viewBox="0 0 119.1 119.1" style="enable-background:new 0 0 119.1 119.1;" xml:space="preserve">
<style type="text/css">
	.st0{display:none;}
	.st1{display:inline;fill:#EFEFEF;}
	.st2{fill:#DAE000;}
	.st3{display:inline;fill:#D8E698;}
	.st4{display:inline;fill:#D3EDFB;}
	.st5{display:inline;fill:#DAE000;}
	.st6{display:inline;fill:#FFF100;}
	.st7{display:inline;fill:#D18E04;}
	.st8{display:inline;fill:#DBE7ED;}
	.st9{fill:#242437;}
	.st10{display:inline;}
	.st11{fill:none;stroke:#FFFFFF;}
	.st12{fill:#DCDDDD;}
</style>
<g id="台灣" class="st0">
</g>
<g id="離島">
</g>
<g id="宜蘭_x2C_花東" class="st0">
</g>
<g id="台南_x2C_高雄_x2C_屏東" class="st0">
</g>
<g id="雲林_x2C_嘉義" class="st0">
</g>
<g id="中彰投" class="st0">
</g>
<g id="桃竹苗" class="st0">
</g>
<g id="北縣" class="st0">
</g>
<g id="縣級區塊">
</g>
<g id="市級">
	<path class="st9" d="M50.7,29.5c1.1,0,3.4,2.3,5.7,3.4c2.3,1.1,4.5,1.1,6.8,1.1c2.3,0,4.5,0,7.9,0c3.4,0,7.9,0,10.2,1.1
		c2.3,1.1,2.3,3.4,3.4,4.5c1.1,1.1,3.4,1.1,4.5,2.3c1.1,1.1,1.1,3.4,0,5.7c-1.1,2.3-3.4,4.5-3.4,5.7c0,1.1,2.3,1.1,4.5,1.1
		c2.3,0,4.5,0,5.7,1.1c1.1,1.1,1.1,3.4,2.3,5.7c1.1,2.3,3.4,4.5,3.4,6.8s-2.3,4.5-4.5,6.8c-2.3,2.3-4.5,4.5-5.7,6.8
		c-1.1,2.3-1.1,4.5-2.3,4.5c-1.1,0-3.4-2.3-4.5-4.5c-1.1-2.3-1.1-4.5-2.3-6.8c-1.1-2.3-3.4-4.5-5.7-4.5c-2.3,0-4.5,2.3-5.7,4.5
		c-1.1,2.3-1.1,4.5-2.3,5.7c-1.1,1.1-3.4,1.1-4.5,2.3c-1.1,1.1-1.1,3.4-2.3,4.5c-1.1,1.1-3.4,1.1-5.7,0c-2.3-1.1-4.5-3.4-5.7-5.7
		c-1.1-2.3-1.1-4.5-1.1-6.8c0-2.3,0-4.5-1.1-5.7c-1.1-1.1-3.4-1.1-5.7,0c-2.3,1.1-4.5,3.4-5.7,3.4c-1.1,0-1.1-2.3-2.3-3.4
		c-1.1-1.1-3.4-1.1-5.7-2.3c-2.3-1.1-4.5-3.4-5.7-5.7c-1.1-2.3-1.1-4.5-2.3-7.9c-1.1-3.4-3.4-7.9-3.4-11.3c0-3.4,2.3-5.7,4.5-5.7
		c2.3,0,4.5,2.3,6.8,4.5c2.3,2.3,4.5,4.5,5.7,4.5c1.1,0,1.1-2.3,2.3-3.4c1.1-1.1,3.4-1.1,5.7-1.1s4.5,0,6.8,0c2.3,0,4.5,0,4.5-1.1
		c0-1.1-2.3-3.4-3.4-5.7C49.5,31.7,49.5,29.5,50.7,29.5z"/>
</g>
<g id="縣級間隔線" class="st0">
</g>
<g id="縣級區塊_OFFSET">
</g>
</svg>
