<?xml version="1.0" encoding="utf-8"?>
<!-- Generator: Adobe Illustrator 21.0.1, SVG Export Plug-In . SVG Version: 6.00 Build 0)  -->
<svg version="1.1" xmlns="http://www.w3.org/2000/svg" xmlns:xlink="http://www.w3.org/1999/xlink" x="0px" y="0px"
	 viewBox="0 0 119.1 119.1" style="enable-background:new 0 0 119.1 119.1;" xml:space="preserve">
<style type="text/css">
	.st0{display:none;}
	.st1{display:inline;fill:#EFEFEF;}
	.st2{fill:#DAE000;}
	.st3{display:inline;fill:#D8E698;}
	.st4{display:inline;fill:#D3EDFB;}
	.st5{display:inline;fill:#DAE000;}
	.st6{display:inline;fill:#FFF100;}
	.st7{display:inline;fill:#D18E04;}
	.st8{display:inline;fill:#DBE7ED;}
	.st9{fill:#242437;}
	.st10{display:inline;}
	.st11{fill:none;stroke:#FFFFFF;}
	.st12{fill:#DCDDDD;}
</style>
<g id="台灣" class="st0">
</g>
<g id="離島">
</g>
<g id="宜蘭_x2C_花東" class="st0">
</g>
<g id="台南_x2C_高雄_x2C_屏東" class="st0">
</g>
<g id="雲林_x2C_嘉義" class="st0">
</g>
<g id="中彰投" class="st0">
</g>
<g id="桃竹苗" class="st0">
</g>
<g id="北縣" class="st0">
</g>
<g id="縣級區塊">
	<path class="st9" d="M27.4,84.6c0.6,0.3,1.1,0.6,1.6,0.8c1.2,0.6,2.2,1.1,2.9,1.3c0.7,0.2,1.2,0.2,1.7,0.2c0.5,0,1,0,2.2-0.2
		c1.2-0.2,3.1-0.7,4.4-1.2c1.2-0.5,1.7-1,2.9-1.2c1.2-0.2,3.1-0.2,5.1-0.2c1.9,0,3.9,0,5.6,0.5c1.7,0.5,3.1,1.5,5.3,1.9
		c2.2,0.5,5.1,0.5,7.5,0.7c2.4,0.2,4.4,0.7,7,1c2.7,0.2,6.1,0.2,8.2,0.2c2.2,0,3.1,0,3.9,0.2c0.5,0.2,0.8,0.4,1.1,0.7
		c1.4-0.9,2.3-0.9,3-0.9c1,0,1.5,0,1.9-0.2c0.5-0.2,1-0.7,1.2-1.5c0.2-0.7,0.2-1.7,0.2-2.4c0-0.7,0-1.2-0.2-1.5
		c-0.2-0.2-0.7-0.2-1.5,0c-0.7,0.2-1.7,0.7-2.7,0.7c-1,0-1.9-0.5-2.4-1.2c-0.5-0.7-0.5-1.7-1.2-2.4c-0.7-0.7-2.2-1.2-3.1-1.7
		c-1-0.5-1.5-1-1.5-2.4c0-1.5,0.5-3.9,0.7-6.1c0.2-2.2,0.2-4.1,0-5.3c-0.2-1.2-0.7-1.7-1.2-2.9c-0.5-1.2-1-3.1-1.2-4.6
		c-0.2-1.5-0.2-2.4-0.5-3.1c-0.2-0.7-0.7-1.2-1-1.7c-0.2-0.5-0.2-1,0.5-1.2c0.7-0.2,2.2-0.2,3.3-0.6c0.6-0.2,1.1-0.5,1.6-0.9
		c-0.2-0.1-0.4-0.3-0.5-0.4c-0.7-0.7-0.7-1.7-1.5-2.4c-0.7-0.7-2.2-1.2-3.9-1.9c-1.7-0.7-3.6-1.7-4.8-2.7c-1.2-1-1.7-1.9-2.2-2.7
		c-0.5-0.7-1-1.2-1.7-1.5c-0.7-0.2-1.7-0.2-2.4-0.5c-0.7-0.2-1.2-0.7-1.5-1.5c-0.2-0.7-0.2-1.7-0.5-2.4c-0.2-0.7-0.7-1.2-0.7-1.7
		c0-0.5,0.5-1,0.7-1.5c0.2-0.5,0.2-1-0.2-1.2c-0.5-0.2-1.5-0.2-1.9-0.6c-0.4-0.3-0.5-0.8-2-1c-0.9,1.2-1.9,2.6-2.9,4.3
		c-1.9,3.4-3.9,8.2-5.3,11.4c-1.5,3.1-2.4,4.6-3.6,6.3c-1.2,1.7-2.7,3.6-4.1,5.6c-1.5,1.9-2.9,3.9-4.6,6.5c-1.7,2.7-3.6,6.1-5,9.9
		c-1.3,3.9-2.1,8.2-6.4,12.6C27.7,84.3,27.5,84.5,27.4,84.6z"/>
</g>
<g id="市級">
</g>
<g id="縣級間隔線" class="st0">
</g>
<g id="縣級區塊_OFFSET">
</g>
</svg>
