<?xml version="1.0" encoding="utf-8"?>
<!-- Generator: Adobe Illustrator 21.0.1, SVG Export Plug-In . SVG Version: 6.00 Build 0)  -->
<svg version="1.1" xmlns="http://www.w3.org/2000/svg" xmlns:xlink="http://www.w3.org/1999/xlink" x="0px" y="0px"
	 viewBox="0 0 119.1 119.1" style="enable-background:new 0 0 119.1 119.1;" xml:space="preserve">
<style type="text/css">
	.st0{display:none;}
	.st1{display:inline;fill:#EFEFEF;}
	.st2{fill:#DAE000;}
	.st3{display:inline;fill:#D8E698;}
	.st4{display:inline;fill:#D3EDFB;}
	.st5{display:inline;fill:#DAE000;}
	.st6{display:inline;fill:#FFF100;}
	.st7{display:inline;fill:#D18E04;}
	.st8{display:inline;fill:#DBE7ED;}
	.st9{fill:#242437;}
	.st10{display:inline;}
	.st11{fill:none;stroke:#FFFFFF;}
	.st12{fill:#DCDDDD;}
</style>
<g id="台灣" class="st0">
</g>
<g id="離島">
</g>
<g id="宜蘭_x2C_花東" class="st0">
</g>
<g id="台南_x2C_高雄_x2C_屏東" class="st0">
</g>
<g id="雲林_x2C_嘉義" class="st0">
</g>
<g id="中彰投" class="st0">
</g>
<g id="桃竹苗" class="st0">
</g>
<g id="北縣" class="st0">
</g>
<g id="縣級區塊">
	<path class="st9" d="M16.9,40.6c1.8,0.5,2.6,0.8,3.3,0.9c1.3,0.3,2.1,0.3,2.9,0.7c0.8,0.4,1.6,1.2,2.6,2c1,0.8,2.2,1.6,2.8,2.4
		c0.6,0.8,0.6,1.6,0.6,2.4c0,0.8,0,1.6-0.2,2.6c-0.2,1-0.6,2.2-1,3c-0.4,0.8-0.8,1.2-1.2,1.6c-0.4,0.4-0.8,0.8-1.4,1.2
		c-0.6,0.4-1.4,0.8-2.2,1c-0.8,0.2-1.6,0.2-2,0.4c-0.4,0.2-0.4,0.6-0.6,1.4c-0.2,0.8-0.6,2-0.4,3c0.2,1,1,1.8,1.8,2.8
		c0.8,1,1.6,2.2,2,3.4c0.4,1.2,0.4,2.4,0.6,3.2c0.2,0.8,0.6,1.2,1.8,1.6c1.2,0.4,3.2,0.8,4.7,0.6c1.4-0.2,2.2-1,2.8-1.2
		c0.6-0.2,1,0.2,1.2,1.4c0.2,1.2,0.2,3.2,0.4,4.9c0.2,1.6,0.6,2.8,1,4c0.4,1.2,0.8,2.4,1.6,4c0.8,1.6,2,3.6,2.8,4.4
		c0.3,0.3,0.5,0.4,0.7,0.4c0.5,0.1,1-0.2,1.9-0.6c1.4-0.6,3.8-1.4,5.9-2.2c2-0.8,3.6-1.6,4.9-2.2c1.2-0.6,2-1,2.2-2.2
		c0.2-1.2-0.2-3.2-0.2-4.4c0-1.2,0.4-1.6,3.6-3.6c3.2-2,9.3-5.7,12.7-7.9c3.4-2.2,4.2-3,4.9-4c0.6-1,1-2.2,1.4-2.4
		c0.4-0.2,0.8,0.6,1.6,0.8c0.8,0.2,2-0.2,2.8-0.8c0.8-0.6,1.2-1.4,1.6-2.2c0.4-0.8,0.8-1.6,2.2-2.6c1.4-1,3.8-2.2,5.5-3
		c1.6-0.8,2.4-1.2,3.7-1.4c0.9-0.1,2.1-0.2,4.3,0.2c0,0,0,0,0,0c0.8-0.4,1.6-0.4,2.4-0.6c0.8-0.2,1.6-0.6,2-1
		c0.4-0.4,0.4-0.8,0.2-1.4c-0.2-0.6-0.6-1.4-1.4-2c-0.8-0.6-2-1-3-1.2c-1-0.2-1.8-0.2-2.4-1c-0.6-0.8-1-2.4-1.8-3.8
		c-0.8-1.4-2-2.6-3.4-3.2c-1.4-0.6-3-0.6-4.4-0.8c-1.4-0.2-2.6-0.6-3.8-1c-1.2-0.4-2.4-0.8-3.4-1.2c-1-0.4-1.8-0.8-3-1
		c-1.2-0.2-2.8-0.2-4.2-0.4c-1.4-0.2-2.6-0.6-3.4-1.2c-0.8-0.6-1.2-1.4-2.3-2.4c-1.1-1-2.9-2.2-4.1-4.7c-6.1-1.2-6.1-1.8-6.5-3.1
		c-0.4-1.3-1.2-3.3-2.2-4.8c-1-1.4-2.2-2.2-3.8-2.4c-1.6-0.2-3.6,0.2-5.9,1.4c-2.2,1.2-4.7,3.2-6.9,4.9c-2.2,1.6-4.2,2.8-5.5,4.2
		c-1.2,1.4-1.6,3-2,4.2c-0.4,1.2-0.8,2-1.2,2.6c-0.4,0.6-0.8,1-2.2,1.8c-1.4,0.8-3.8,2-5.9,2.8C20.5,39.7,19.1,40.1,16.9,40.6z"/>
</g>
<g id="市級">
</g>
<g id="縣級間隔線" class="st0">
</g>
<g id="縣級區塊_OFFSET">
</g>
</svg>
