<?xml version="1.0" encoding="utf-8"?>
<!-- Generator: Adobe Illustrator 21.0.1, SVG Export Plug-In . SVG Version: 6.00 Build 0)  -->
<svg version="1.1" xmlns="http://www.w3.org/2000/svg" xmlns:xlink="http://www.w3.org/1999/xlink" x="0px" y="0px"
	 viewBox="0 0 119.1 119.1" style="enable-background:new 0 0 119.1 119.1;" xml:space="preserve">
<style type="text/css">
	.st0{display:none;}
	.st1{display:inline;fill:#EFEFEF;}
	.st2{fill:#DAE000;}
	.st3{display:inline;fill:#D8E698;}
	.st4{display:inline;fill:#D3EDFB;}
	.st5{display:inline;fill:#DAE000;}
	.st6{display:inline;fill:#FFF100;}
	.st7{display:inline;fill:#D18E04;}
	.st8{display:inline;fill:#DBE7ED;}
	.st9{fill:#242437;}
	.st10{display:inline;}
	.st11{fill:none;stroke:#FFFFFF;}
	.st12{fill:#DCDDDD;}
</style>
<g id="台灣" class="st0">
</g>
<g id="離島">
</g>
<g id="宜蘭_x2C_花東" class="st0">
</g>
<g id="台南_x2C_高雄_x2C_屏東" class="st0">
</g>
<g id="雲林_x2C_嘉義" class="st0">
</g>
<g id="中彰投" class="st0">
</g>
<g id="桃竹苗" class="st0">
</g>
<g id="北縣" class="st0">
</g>
<g id="縣級區塊">
	<path class="st9" d="M39.3,103.6c0.4-0.5,0.4-0.8,0.5-1c0.2-0.2,0.5-0.2,0.8-0.2c0.3,0,0.6,0,0.8-0.2c0.2-0.2,0.2-0.5,0.3-0.6
		c0.2-0.2,0.5-0.2,0.6-0.3c0.2-0.2,0.2-0.5,0.3-0.6c0.2-0.2,0.5-0.2,0.5-0.3c0-0.2-0.3-0.5-0.5-0.8c-0.2-0.3-0.2-0.6-0.3-0.8
		c-0.2-0.2-0.5-0.2-0.6-0.3c-0.2-0.2-0.2-0.5-0.3-0.8c-0.2-0.3-0.5-0.6-0.8-0.9c-0.3-0.3-0.6-0.6-0.8-0.6c-0.2,0-0.2,0.3-0.3,0.5
		c-0.2,0.2-0.5,0.2-0.6,0c-0.2-0.2-0.2-0.5-0.5-0.6c-0.3-0.2-0.9-0.2-1.2,0c-0.3,0.2-0.3,0.5-0.5,0.6C36.6,97,36.3,97,36,97
		s-0.6,0-0.8-0.2c-0.2-0.2-0.2-0.5,0-0.6c0.2-0.2,0.5-0.2,0.8-0.3c0.3-0.2,0.6-0.5,0.6-0.6c0-0.2-0.3-0.2-0.6-0.3
		c-0.3-0.2-0.6-0.5-0.8-0.8c-0.2-0.3-0.2-0.6,0.2-0.8c0.3-0.2,0.9-0.2,1.2,0c0.3,0.2,0.3,0.5,0.5,0.6c0.2,0.2,0.5,0.2,0.6-0.5
		c0.2-0.6,0.2-1.8,0-2.7c-0.2-0.9-0.5-1.5-0.8-2c-0.3-0.5-0.6-0.8-0.8-1.1c-0.2-0.3-0.2-0.6-0.5-0.8c-0.3-0.2-0.9-0.2-1.2-0.3
		c-0.3-0.2-0.3-0.5-0.2-0.6c0.2-0.2,0.5-0.2,0.8-0.3c0.3-0.2,0.6-0.5,0.6-0.8c0-0.3-0.3-0.6-0.5-0.9c-0.2-0.3-0.2-0.6,0-0.8
		c0.2-0.2,0.5-0.2,0.8-0.2s0.6,0,0.8-0.3c0.2-0.3,0.2-0.9,0-1.4c-0.2-0.5-0.5-0.8-0.6-1.1C36,80.3,36,80,35.9,79.8
		c-0.2-0.2-0.5-0.2-0.6-0.3c-0.2-0.2-0.2-0.5-0.3-0.5c-0.2,0-0.5,0.3-0.5,0.6c0,0.3,0.3,0.6,0.5,0.9c0.2,0.3,0.2,0.6-0.2,0.8
		c-0.3,0.2-0.9,0.2-1.2,0.3c-0.3,0.2-0.3,0.5-0.5,0.6c-0.2,0.2-0.5,0.2-0.8,0c-0.3-0.2-0.6-0.5-0.9-0.8c-0.3-0.3-0.6-0.6-0.9-0.6
		c-0.3,0-0.6,0.3-1,0.7c-0.3,0.3-0.6,0.6-1.2,1.5c-0.5-0.7-1.1-1.5-2.3-3.6c-1.4-2.6-3.7-7.1-6.4-12.5c0.3-0.5,0.6-0.8,0.8-1.1
		c0.4-0.5,0.7-1.1,1-1.1s0.6,0.6,1.4,1.1c0.8,0.5,2,0.8,3.2,0.8c1.2,0,2.4-0.3,3.2-0.2c0.8,0.2,1.1,0.8,1.7,1.1
		c0.6,0.3,1.5,0.3,2.4,0.2c0.9-0.2,1.8-0.5,2.6-0.6c0.8-0.2,1.4-0.2,1.7-0.3c0.3-0.2,0.3-0.5,0.5-0.9c0.2-0.5,0.5-1.1,0.9-1.5
		c0.5-0.5,1.1-0.8,1.5-0.8c0.5,0,0.8,0.3,1.1,0.5c0.3,0.2,0.6,0.2,0.8,0c0.2-0.2,0.2-0.5,0.2-1.1c0-0.6,0-1.5,0.2-2.3
		c0.2-0.8,0.5-1.4,0.8-1.7c0.3-0.3,0.6-0.3,1.2-0.5c0.6-0.2,1.5-0.5,2.1-0.8c0.6-0.3,0.9-0.6,1.1-0.9c0.2-0.3,0.2-0.6,0.2-1.2
		c0-0.6,0-1.5,0.2-2c0.2-0.5,0.5-0.5,1.4-1.4c0.9-0.9,2.4-2.7,4.2-4.5s3.9-3.6,5.1-5c1.2-1.4,1.5-2.3,1.8-3.5
		c0.3-1.2,0.6-2.7,1.1-3.9c0.5-1.2,1.1-2.1,1.5-3.2c0.5-1.1,0.8-2.3,1.7-3.2s2.4-1.5,3.9-2.3c1.5-0.8,3-1.7,3.9-2.6
		c0.9-0.9,1.2-1.8,1.8-2.7c0.6-0.9,1.5-1.8,2.7-2.7c1.2-0.9,2.7-1.8,3.9-2.6c1.2-0.8,2.1-1.4,2.8-1.9c0.6-0.5,1.1-0.9,2.5-3.1
		c0.2,0.1,0.4,0.1,0.6,0.1c0.8,0.2,1.7,0.2,3.3,0.2c1.3,0,3.1,0,6.9,0c0,0.3,0.3,0.6,0.6,0.9c0.3,0.3,0.6,0.6,0.8,0.9
		c0.2,0.3,0.2,0.6-0.2,0.8c-0.3,0.2-0.9,0.2-1.5,0.3c-0.6,0.2-1.2,0.5-1.8,0.6c-0.6,0.2-1.2,0.2-1.5,0.3c-0.3,0.2-0.3,0.5-0.3,0.9
		c0,0.5,0,1.1,0.2,1.5c0.2,0.5,0.5,0.8,1.2,0.9c0.8,0.2,2,0.2,2.9,0.3c0.9,0.2,1.5,0.5,1.7,0.9c0.2,0.5-0.2,1.1-0.3,1.8
		c-0.1,0.7-0.2,1.6,0.1,2.3c-0.9,0.3-1.5,0.4-2.2,0.7c-1.1,0.5-2.3,1.4-3.2,2c-0.9,0.6-1.5,0.9-2.1,1.5c-0.6,0.6-1.2,1.5-1.8,2.3
		c-0.6,0.8-1.2,1.4-1.7,2c-0.5,0.6-0.8,1.2-1.1,2c-0.3,0.8-0.6,1.7-0.8,2.4c-0.2,0.8-0.2,1.4-0.3,3.3c-0.2,2-0.5,5.3-0.6,7.6
		c-0.2,2.3-0.2,3.5-0.3,4.2c-0.2,0.8-0.5,1.1-0.8,1.4c-0.3,0.3-0.6,0.6-0.9,0.9c-0.3,0.3-0.6,0.6-0.9,1.1c-0.3,0.5-0.6,1.1-0.8,1.7
		c-0.2,0.6-0.2,1.2,0,1.8c0.2,0.6,0.5,1.2,0.8,1.7c0.3,0.5,0.6,0.8,0.9,1.8c0.3,1.1,0.6,2.9,0.9,3.9c0,0.1,0.1,0.2,0.1,0.3
		c-1.9-0.6-2-0.9-2.2-1.1c-0.3-0.2-0.9-0.2-1.5,0.1c-0.6,0.3-1.2,0.9-1.8,1.5c-0.6,0.6-1.2,1.2-1.5,1.7c-0.3,0.5-0.3,0.8-0.5,0.8
		c-0.2,0-0.5-0.3-0.9-0.8c-0.5-0.5-1.1-1.1-1.7-1.5c-0.6-0.5-1.2-0.8-1.8-0.8s-1.2,0.3-1.5,0.6c-0.3,0.3-0.3,0.6-0.6,0.8
		c-0.3,0.2-0.9,0.2-1.5-0.2c-0.6-0.3-1.2-0.9-1.5-1.4c-0.3-0.5-0.3-0.8-0.5-0.9c-0.2-0.2-0.5-0.2-0.8-0.2c-0.3,0-0.6,0-1.1,0.3
		c-0.5,0.3-1.1,0.9-1.7,1.1c-0.6,0.2-1.2-0.2-1.7-0.3c-0.5-0.2-0.8-0.2-1.2-0.2c-0.5,0-1.1,0-1.5,0.2c-0.5,0.2-0.8,0.5-0.9,1.1
		c-0.2,0.6-0.2,1.5-0.8,2.3c-0.6,0.8-1.8,1.4-2.4,1.8c-0.6,0.5-0.6,0.8-1.2,0.9c-0.6,0.2-1.8,0.2-2.7,0.2c-0.9,0-1.5,0-2.1,0.2
		c-0.6,0.2-1.2,0.5-1.7,0.6c-0.5,0.2-0.8,0.2-0.9,0.5C46,73.9,46,74.5,46,76.8c0,2.3,0,6.2,0,8.5c0,2.3,0,2.9,0,3.5s0,1.2,0,1.8
		c0,0.6,0,1.2,0.2,1.7c0.2,0.5,0.5,0.8,0.8,1.1c0.3,0.3,0.6,0.6,0.8,1.1c0.2,0.5,0.2,1.1,0,1.7c-0.2,0.6-0.5,1.2-0.6,1.8
		c-0.2,0.6-0.2,1.2-0.3,2c-0.2,0.8-0.5,1.7-0.8,2.6c-0.3,0.9-0.6,1.8-1,2.5c-0.3,0.5-0.6,0.9-1.1,1.4c-0.2-0.1-0.3-0.2-0.5-0.3
		c-1.1-0.6-2-1.2-2.6-1.6c-0.6-0.4-0.9-0.6-1.4-0.8C39.4,103.6,39.4,103.6,39.3,103.6z"/>
</g>
<g id="市級">
</g>
<g id="縣級間隔線" class="st0">
</g>
<g id="縣級區塊_OFFSET">
</g>
</svg>
