<?xml version="1.0" encoding="utf-8"?>
<!-- Generator: Adobe Illustrator 21.0.1, SVG Export Plug-In . SVG Version: 6.00 Build 0)  -->
<svg version="1.1" xmlns="http://www.w3.org/2000/svg" xmlns:xlink="http://www.w3.org/1999/xlink" x="0px" y="0px"
	 viewBox="0 0 119.1 119.1" style="enable-background:new 0 0 119.1 119.1;" xml:space="preserve">
<style type="text/css">
	.st0{display:none;}
	.st1{display:inline;fill:#EFEFEF;}
	.st2{fill:#DAE000;}
	.st3{display:inline;fill:#D8E698;}
	.st4{display:inline;fill:#D3EDFB;}
	.st5{display:inline;fill:#DAE000;}
	.st6{display:inline;fill:#FFF100;}
	.st7{display:inline;fill:#D18E04;}
	.st8{display:inline;fill:#DBE7ED;}
	.st9{fill:#242437;}
	.st10{display:inline;}
	.st11{fill:none;stroke:#FFFFFF;}
	.st12{fill:#DCDDDD;}
</style>
<g id="台灣" class="st0">
</g>
<g id="離島">
</g>
<g id="宜蘭_x2C_花東" class="st0">
</g>
<g id="台南_x2C_高雄_x2C_屏東" class="st0">
</g>
<g id="雲林_x2C_嘉義" class="st0">
</g>
<g id="中彰投" class="st0">
</g>
<g id="桃竹苗" class="st0">
</g>
<g id="北縣" class="st0">
</g>
<g id="縣級區塊">
	<path class="st9" d="M38.1,42.6c0.5,0.3,0.9,0.5,1.3,0.7c1,0.5,1.8,0.9,2.4,1.1c0.6,0.2,1,0.2,1.4,0.2c0.4,0,0.8,0,1.8-0.2
		c1-0.2,2.6-0.6,3.6-1c1-0.4,1.4-0.8,2.4-1c1-0.2,2.6-0.2,4.2-0.2c1.6,0,3.2,0,4.7,0.4c1.4,0.4,2.6,1.2,4.4,1.6
		c1.8,0.4,4.2,0.4,6.3,0.6c2,0.2,3.6,0.6,5.9,0.8c2.2,0.2,5.1,0.2,6.9,0.2c1.8,0,2.6,0,3.2,0.2c0.6,0.2,1,0.6,1.4,1
		c0.4,0.4,0.8,0.8,0.8,1.2s-0.4,0.8-0.6,1.4c-0.2,0.6-0.2,1.4-0.2,2.4c0,1,0,2.2-0.2,3c-0.2,0.8-0.6,1.2-0.8,2
		C87,58,87,59.2,87,60.4c0,1.2,0,2.4,0,3.2c0,0.8,0,1.2,0.2,1.2c0.2,0,0.6-0.4,1.4-0.4c0.8,0,2,0.4,3.2,0.6c1.2,0.2,2.4,0.2,3.6-0.2
		c1.2-0.4,2.4-1.2,3.4-1.4c1-0.2,1.8,0.2,2.4,0.4c0.6,0.2,1,0.2,1.2,0.4c0.1,0.1,0.2,0.4,0.3,0.6c-0.8,0.4-1.5,0.4-1.9,0.6
		c-0.6,0.2-0.6,0.6-0.6,1c0,0.4,0,0.8,0,1.4c0,0.6,0,1.4-0.2,1.8c-0.2,0.4-0.6,0.4-1.2,0.2c-0.6-0.2-1.4-0.6-3-0.6
		c-1.6,0-4,0.4-5.7,0.4c-1.6,0-2.4-0.4-3-0.4s-1,0.4-1.6,0.6c-0.6,0.2-1.4,0.2-2,0c-0.6-0.2-1-0.6-1.6-0.6c-0.6,0-1.4,0.4-2,0.6
		c-0.6,0.2-1,0.2-1.6,0.2c-0.6,0-1.4,0-2,0c-0.6,0-1,0-1.4-0.2c-0.4-0.2-0.8-0.6-1.2-1c-0.4-0.4-0.8-0.8-1.4-1.4
		c-0.6-0.6-1.4-1.4-1.8-2c-0.4-0.6-0.4-1-0.6-1.2C69.6,64,69.2,64,68.4,64c-0.8,0-2,0-3.2,0c-1.2,0-2.4,0-3.2,0
		c-0.8,0-1.2,0-1.6,0.2c-0.4,0.2-0.8,0.6-2,1.4c-1.2,0.8-3.2,2-4.7,3.2c-1.4,1.2-2.2,2.4-2.8,2.8c-0.6,0.4-1,0-1.4-0.4
		c-0.4-0.4-0.8-0.8-1.2-0.8s-0.8,0.4-1.4,1.6c-0.6,1.2-1.4,3.2-2,4.2c-0.6,1-1,1-1.4,1c-0.4,0-0.8,0-1.2-0.2
		c-0.4-0.2-0.8-0.6-1.2-0.6s-0.8,0.4-1.2,0.6c-0.4,0.2-0.8,0.2-1.2,0.4c-0.4,0.2-0.8,0.6-1.2,1c-0.4,0.4-0.8,0.8-1,1.4
		c-0.2,0.6-0.2,1.4-0.4,1.8c-0.2,0.4-0.6,0.4-1,0.8C34.4,83,34,83.8,33.6,84c-0.4,0.2-0.8-0.2-1.4-0.6c-0.6-0.4-1.4-0.8-2-1.2
		c-0.6-0.4-1-0.8-1.4-1c-0.4-0.2-0.8-0.2-1.3,0.1c-0.5,0.3-1,0.8-3.1,0.9c-0.1-0.5-0.2-1-0.2-1.6c-0.2-2-0.2-4.4,0-7.1
		c0.2-2.6,0.6-5.5,1.6-8.7c1-3.2,2.6-6.9,4.3-10.2C31.7,51.4,33.5,48.4,38.1,42.6z"/>
</g>
<g id="市級">
</g>
<g id="縣級間隔線" class="st0">
</g>
<g id="縣級區塊_OFFSET">
</g>
</svg>
