<?xml version="1.0" encoding="utf-8"?>
<!-- Generator: Adobe Illustrator 21.0.1, SVG Export Plug-In . SVG Version: 6.00 Build 0)  -->
<svg version="1.1" xmlns="http://www.w3.org/2000/svg" xmlns:xlink="http://www.w3.org/1999/xlink" x="0px" y="0px"
	 viewBox="0 0 119.1 119.1" style="enable-background:new 0 0 119.1 119.1;" xml:space="preserve">
<style type="text/css">
	.st0{display:none;}
	.st1{display:inline;fill:#EFEFEF;}
	.st2{fill:#DAE000;}
	.st3{display:inline;fill:#D8E698;}
	.st4{display:inline;fill:#D3EDFB;}
	.st5{display:inline;fill:#DAE000;}
	.st6{display:inline;fill:#FFF100;}
	.st7{display:inline;fill:#D18E04;}
	.st8{display:inline;fill:#DBE7ED;}
	.st9{fill:#242437;}
	.st10{display:inline;}
	.st11{fill:none;stroke:#FFFFFF;}
	.st12{fill:#DCDDDD;}
</style>
<g id="台灣" class="st0">
</g>
<g id="離島">
</g>
<g id="宜蘭_x2C_花東" class="st0">
</g>
<g id="台南_x2C_高雄_x2C_屏東" class="st0">
</g>
<g id="雲林_x2C_嘉義" class="st0">
</g>
<g id="中彰投" class="st0">
</g>
<g id="桃竹苗" class="st0">
</g>
<g id="北縣" class="st0">
</g>
<g id="縣級區塊">
	<path class="st9" d="M17.4,87.1c0.2-0.3,0.3-0.6,0.5-0.8c2.4-4.1,4.9-8.4,8.5-15.7c1.2-2.4,3.6-4.9,5.3-6.7c1.6-1.8,2.4-3,3.4-3.6
		c1-0.6,2.2-0.6,3.4-0.8c1.2-0.2,2.4-0.6,3.6-2c1.2-1.4,2.4-3.8,3.4-5.3c1-1.4,1.8-1.8,2.2-2.6c0.1-0.3,0.2-0.6,0.3-1
		c0.5-0.2,0.8-0.6,1-0.9c0.3-0.5,0.3-0.9,0.5-1.1c0.2-0.2,0.6-0.2,0.8,0c0.2,0.2,0.2,0.6,0.4,1c0.2,0.4,0.6,0.8,0.8,1.4
		c0.2,0.6,0.2,1.4,0.6,1.8c0.4,0.4,1.2,0.4,2.2,0.6c1,0.2,2.2,0.6,3.2,0.8c1,0.2,1.8,0.2,2.4,0.6c0.6,0.4,1,1.2,2.4,2.4
		c1.4,1.2,3.8,2.8,5.5,4c1.6,1.2,2.4,2,3.2,2.6c0.8,0.6,1.6,1,2.4,1.2c0.8,0.2,1.6,0.2,2.2,0.4c0.6,0.2,1,0.6,2.2,1
		c1.2,0.4,3.2,0.8,4.9,1.2c1.6,0.4,2.8,0.8,3.6,1c0.8,0.2,1.2,0.2,1.8,0.4c0.6,0.2,1.4,0.6,2.4,1.6c1,1,2.2,2.6,3,3.8
		c0.8,1.2,1.2,2,1.8,2.4c0.6,0.4,1.4,0.4,1.6,0.6c0.2,0.2-0.2,0.6-0.4,1.2c-0.2,0.6-0.2,1.4-0.2,2.4c0,1,0,2.2-0.3,3.1
		c-0.2,0.5-0.5,1-0.7,1.5c-0.1,0-0.2,0-0.3,0.1c-1.2,1.2-1.2,2.4-1.6,3.4c-0.4,1-1.2,1.8-1.6,2c-0.4,0.2-0.4-0.2-0.8-0.4
		c-0.4-0.2-1.2-0.2-2.4,0.2c-1.2,0.4-2.8,1.2-3.8,2c-1,0.8-1.4,1.6-1.8,2c-0.4,0.4-0.8,0.4-1.2,0.4s-0.8,0-1.4,0.6
		c-0.6,0.6-1.4,1.8-2,2.4c-0.6,0.6-1,0.6-1.4,0.6c-0.4,0-0.8,0-1.4,0c-0.6,0-1.4,0-2.2,0.6c-0.8,0.6-1.6,1.8-2.2,2.2
		c-0.6,0.4-1,0-1.6-0.2c-0.6-0.2-1.4-0.2-2-0.4c-0.6-0.2-1-0.6-1.2-1c-0.2-0.4-0.2-0.8-0.4-1c-0.2-0.2-0.6-0.2-1.2,0
		c-0.6,0.2-1.4,0.6-2,0.8c-0.6,0.2-1,0.2-1.6,0c-0.6-0.2-1.4-0.6-2.2-0.8c-0.8-0.2-1.6-0.2-2.4-0.2c-0.8,0-1.6,0-2.2,0
		c-0.6,0-1,0-1.4-0.2c-0.4-0.2-0.8-0.6-1.4-1.2c-0.6-0.6-1.4-1.4-2-1.8c-0.6-0.4-1-0.4-1.8-0.4c-0.8,0-2,0-2.8,0.2
		c-0.8,0.2-1.2,0.6-2,1c-0.8,0.4-2,0.8-3.2,1.4c-1.2,0.6-2.4,1.4-3.4,1.6c-1,0.2-1.8-0.2-2.6-0.4c-0.8-0.2-1.6-0.2-2.8-0.8
		c-1.2-0.6-2.8-1.8-4.2-2.6c-1.4-0.8-2.6-1.2-3.6-1.8c-1-0.6-1.8-1.4-2.5-2.1C19.8,89.5,19.3,89.1,17.4,87.1z"/>
</g>
<g id="市級">
</g>
<g id="縣級間隔線" class="st0">
</g>
<g id="縣級區塊_OFFSET">
</g>
</svg>
