<?xml version="1.0" encoding="utf-8"?>
<!-- Generator: Adobe Illustrator 21.0.1, SVG Export Plug-In . SVG Version: 6.00 Build 0)  -->
<svg version="1.1" xmlns="http://www.w3.org/2000/svg" xmlns:xlink="http://www.w3.org/1999/xlink" x="0px" y="0px"
	 viewBox="0 0 119.1 119.1" style="enable-background:new 0 0 119.1 119.1;" xml:space="preserve">
<style type="text/css">
	.st0{display:none;}
	.st1{display:inline;fill:#EFEFEF;}
	.st2{fill:#DAE000;}
	.st3{display:inline;fill:#D8E698;}
	.st4{display:inline;fill:#D3EDFB;}
	.st5{display:inline;fill:#DAE000;}
	.st6{display:inline;fill:#FFF100;}
	.st7{display:inline;fill:#D18E04;}
	.st8{display:inline;fill:#DBE7ED;}
	.st9{fill:#242437;}
	.st10{display:inline;}
	.st11{fill:none;stroke:#FFFFFF;}
	.st12{fill:#DCDDDD;}
</style>
<g id="台灣" class="st0">
</g>
<g id="離島">
</g>
<g id="宜蘭_x2C_花東" class="st0">
</g>
<g id="台南_x2C_高雄_x2C_屏東" class="st0">
</g>
<g id="雲林_x2C_嘉義" class="st0">
</g>
<g id="中彰投" class="st0">
</g>
<g id="桃竹苗" class="st0">
</g>
<g id="北縣" class="st0">
</g>
<g id="縣級區塊">
</g>
<g id="市級">
	<path class="st9" d="M61.6,17.5c-1.1-1.1-2-1.7-3.5-2c-1.6-0.3-3.8-0.3-5,0.1C52,16.1,52,17,50.9,17.5c-1.1,0.6-3.4,0.8-4.7,1.4
		c-1.3,0.6-1.6,1.4-1.8,3.1c-0.3,1.7-0.6,4.3-1,5.4c-0.4,1.1-1,0.8-2.4,0.7c-1.4-0.1-3.7-0.1-6.5,1.1c-2.8,1.3-6.2,3.8-7.9,6.2
		c-1.7,2.4-1.7,4.7-2.3,6.5c-0.6,1.8-1.7,3.3-2.3,4.4c-0.6,1.1-0.6,2,1.1,3.1c1.7,1.1,5.1,2.6,7.1,3.1c2,0.6,2.6,0.3,3.8,1.4
		c1.3,1.1,3.3,3.7,4.3,5.2c1,1.6,1,2.1-0.3,4.3c-1.3,2.1-3.8,5.8-5,9.5c-1.1,3.7-0.8,7.4-0.4,9.1c0.4,1.7,1,1.4,1.8,1.3
		c0.9-0.1,2-0.1,3.3-0.7c1.3-0.6,2.7-1.7,3.8-2.1c1.1-0.4,2-0.1,2.6,0.4c0.6,0.6,0.8,1.4,1.4,1.8c0.6,0.4,1.4,0.4,2,1.6
		c0.6,1.1,0.8,3.4,1.6,5.1c0.7,1.7,1.8,2.8,2.1,3.7c0.3,0.8-0.3,1.4,0.9,2c1.1,0.6,4,1.1,6.5,2.6c2.5,1.4,4.8,3.7,7.4,4.5
		c2.5,0.9,5.4,0.3,7.1,0.3c1.7,0,2.3,0.6,3.1-0.3c0.9-0.9,2-3.1,2.3-4.4c0.3-1.3-0.3-1.6-2-1.6c-1.7,0-4.5,0.3-6-0.1
		C69,95.7,69,94.6,69,93.5s0-2.3,0.6-4c0.6-1.7,1.7-4,2.8-5.1c1.1-1.1,2.3-1.1,2.8-1.7c0.6-0.6,0.6-1.7,1.1-2.3
		c0.6-0.6,1.7-0.6,3.4-0.6c1.7,0,4,0,5.7,0.6c1.7,0.6,2.8,1.7,3.4,1.7c0.6,0,0.6-1.1,0.6-2.3c0-1.1,0-2.3-1.1-3.4
		c-1.1-1.1-3.4-2.3-5.1-3.4c-1.7-1.1-2.8-2.3-3.4-3.4c-0.6-1.1-0.6-2.3-1.1-4c-0.6-1.7-1.7-4-2.3-6.8c-0.6-2.8-0.6-6.2,0-7.9
		c0.6-1.7,1.7-1.7,1.1-2.3c-0.6-0.6-2.8-1.7-4-2.8c-1.1-1.1-1.1-2.3-0.6-4c0.6-1.7,1.7-4,1.7-5.5c0-1.6-1.1-2.4-2.8-3.5
		c-1.7-1.1-4-2.5-5.1-4.4c-1.1-1.8-1.1-4.1-1.8-6.1C64.2,20.4,62.8,18.7,61.6,17.5z"/>
</g>
<g id="縣級間隔線" class="st0">
</g>
<g id="縣級區塊_OFFSET">
</g>
</svg>
