<?xml version="1.0" encoding="utf-8"?>
<!-- Generator: Adobe Illustrator 21.0.1, SVG Export Plug-In . SVG Version: 6.00 Build 0)  -->
<svg version="1.1" xmlns="http://www.w3.org/2000/svg" xmlns:xlink="http://www.w3.org/1999/xlink" x="0px" y="0px"
	 viewBox="0 0 119.1 119.1" style="enable-background:new 0 0 119.1 119.1;" xml:space="preserve">
<style type="text/css">
	.st0{display:none;}
	.st1{display:inline;fill:#EFEFEF;}
	.st2{fill:#DAE000;}
	.st3{display:inline;fill:#D8E698;}
	.st4{display:inline;fill:#D3EDFB;}
	.st5{display:inline;fill:#DAE000;}
	.st6{display:inline;fill:#FFF100;}
	.st7{display:inline;fill:#D18E04;}
	.st8{display:inline;fill:#DBE7ED;}
	.st9{fill:#242437;}
	.st10{display:inline;}
	.st11{fill:none;stroke:#FFFFFF;}
	.st12{fill:#DCDDDD;}
</style>
<g id="台灣" class="st0">
</g>
<g id="離島">
</g>
<g id="宜蘭_x2C_花東" class="st0">
</g>
<g id="台南_x2C_高雄_x2C_屏東" class="st0">
</g>
<g id="雲林_x2C_嘉義" class="st0">
</g>
<g id="中彰投" class="st0">
</g>
<g id="桃竹苗" class="st0">
</g>
<g id="北縣" class="st0">
</g>
<g id="縣級區塊">
	<path class="st9" d="M63.7,15.5c-2,2.5-3.2,3.9-4.1,4.9c-1.1,1.1-1.8,1.6-2.1,2c-0.4,0.4-0.4,0.6-0.4,1.2c0,0.6,0,1.5,0.1,2.4
		c0.1,0.8,0.4,1.5,0.8,2.5c0.5,1,1.2,2.1,1.4,2.7c0.2,0.6,0,0.6-0.5,0.6c-0.5,0-1.2,0-1.7,0.2c-0.5,0.2-0.7,0.7-0.8,1.2
		c-0.1,0.5-0.1,1,0,1.4c0.1,0.5,0.4,1,0.2,1.4c-0.1,0.5-0.6,1-1.4,2c-0.8,1.1-2,2.7-2.6,3.8c-0.6,1.1-0.6,1.5-0.5,1.9
		c0.1,0.4,0.4,0.6,0.6,0.8c0.2,0.2,0.5,0.5,0.7,0.8c0.2,0.4,0.5,0.8,0.5,1.7c0,0.8-0.2,2-0.5,3c-0.2,1-0.5,1.7-0.7,2.3
		c-0.2,0.6-0.5,1.1-0.7,1.5c-0.2,0.5-0.5,1-1,1.7c-0.5,0.7-1.2,1.7-1.5,2.3c-0.4,0.6-0.4,0.8-0.1,1.1c0.2,0.2,0.7,0.5,1.2,0.8
		c0.5,0.4,1,0.8,1.3,1.2c0.4,0.4,0.6,0.6,0.6,1c0,0.4-0.2,0.8-0.6,2.5c-0.4,1.7-0.8,4.5-1.2,6c-0.4,1.4-0.6,1.4-1.2,1.7
		c-0.6,0.2-1.5,0.7-2,1.2c-0.5,0.5-0.5,1-0.5,1.5c0,0.6,0,1.3-0.1,1.7c-0.1,0.4-0.4,0.4-1.1,0.5c-0.7,0.1-1.9,0.4-2.6,0.5
		c-0.7,0.1-1,0.1-1.2,0.5c-0.2,0.4-0.5,1.1-1,1.9c-0.5,0.8-1.2,1.8-1.7,2.4c-0.5,0.6-0.7,0.8-0.7,1.1s0.2,0.5,0.5,0.7
		c0.2,0.2,0.5,0.5,0.6,0.7c0.1,0.2,0.1,0.5-0.1,0.6c-0.2,0.1-0.7,0.1-1.2,0.2c-0.5,0.1-1,0.4-1.4,0.5c-0.5,0.1-1,0.1-1.2,0.2
		c-0.2,0.1-0.2,0.4-0.2,0.7c0,0.4,0,0.8,0.1,1.2c0.1,0.4,0.4,0.6,1,0.7c0.6,0.1,1.5,0.1,2.3,0.2c0.7,0.1,1.2,0.4,1.3,0.7
		c0.1,0.4-0.1,0.8-0.2,1.4c-0.1,0.6-0.1,1.2,0.1,1.8c0,0,0,0.1,0,0.1c0.2,0.6,0.7,1.1,2.1,1.9c1.4,0.8,3.8,2,5.2,2.9
		c1.4,0.8,1.9,1.3,2.3,1.4c0.4,0.1,0.6-0.1,1-0.2c0.4-0.1,0.8-0.1,1.2,0.1c0.4,0.2,0.6,0.7,1.7,1.5c1.1,0.8,3,2,4.2,2.6
		C59,104,59.5,104,60,104c0.5,0,1,0,1.2-0.1c0.2-0.1,0.2-0.4,0.4-0.6c0.1-0.2,0.4-0.5,0.5-0.8c0.1-0.4,0.1-0.8,0.8-3.3
		c0.7-2.5,2.1-7,3-9.5c0.8-2.5,1.1-3,1.2-3.3c0.1-0.4,0.1-0.6,0.1-1c0-0.4,0-0.8-0.2-1.3c-0.2-0.5-0.7-1-0.8-1.2
		c-0.1-0.2,0.1-0.2,1.1-0.7c1-0.5,2.6-1.4,3.6-1.8c1-0.4,1.2-0.1,1.5,0.2c0.3,0.3,0.5,0.5,1.9,1.5c0.1-0.1,0.1-0.2,0.2-0.2
		c0.2-0.4,0.5-0.8,0.6-1.3c0.1-0.5,0.1-1-0.2-1.7c-0.4-0.8-1.1-1.8-1.1-2.6c0-1.4,0.7-1.8,1.1-2.3c0.4-0.5,0.4-1.3,0.7-3.5
		c0.4-2.3,1.1-6.1,1.5-9.3c0.5-3.2,0.7-5.8,1-7.7c0.2-1.9,0.5-3.1,0.7-4.4c0.2-1.3,0.5-2.7,1-4.1c0.5-1.3,1.2-2.5,1.5-3.2
		c0.4-0.7,0.4-1,0.2-1.4c-0.1-0.5-0.4-1.2-0.5-1.9c-0.1-0.7-0.1-1.4,0-2.1c0.1-0.7,0.4-1.4,0.7-2.4c0.4-1,0.8-2.1,1.1-2.9
		c0.2-0.7,0.2-1,0-1.5c-0.2-0.6-0.7-1.5-0.8-2c-0.1-0.5,0.1-0.5,1.3-1.3c1.2-0.8,3.3-2.5,4.4-3.5c1.1-1,1.1-1.2,1-1.8
		c-0.1-0.6-0.4-1.5-0.4-2.3c0-0.2,0-0.4,0.1-0.6c-2.2-0.5-3-0.7-3.8-0.8c-1-0.1-2,0.2-2.7,0.2c-0.7,0-1.2-0.2-1.5-0.5
		c-0.4-0.2-0.6-0.5-0.8-0.5s-0.5,0.2-1,0.6c-0.5,0.4-1.2,0.8-1.7,1.2c-0.5,0.4-0.7,0.6-1.5,0.6c-0.8,0-2.3-0.2-3.3-0.5
		c-1.1-0.2-1.8-0.5-2.3-0.7c-0.5-0.2-0.7-0.5-1.3-0.6c-0.6-0.1-1.5-0.1-2.4-0.4C65,16.3,64.3,15.8,63.7,15.5z"/>
</g>
<g id="市級">
</g>
<g id="縣級間隔線" class="st0">
</g>
<g id="縣級區塊_OFFSET">
</g>
</svg>
